# xmcd
#
# Track frame offsets: 
#        150
#        12749
#        25323
#        39594
#        52660
#        66283
#        79467
#        91382
#        103323
#        115703
#        129489
#        143351
#        156892
#        169782
#        183640
#        194714
#        207828
#        220705
#        232192
#        244713
#        256912
#        267977
#        280630
#        293306
#        306123
#
# Disc length: 4241 seconds
#
# Revision: 0
# Processed by: cddbd v1.5.1PL0 Copyright (c) Steve Scherf et al.
# Submitted via: ExactAudioCopy v0.95a4
#
DISCID=69108f19
DTITLE=Various Artist - Rhythm Is Our Business
DYEAR=1900
DGENRE=Country
TTITLE0=Ocie Stockard and the Wanderers - What's The Matter
TTITLE1=Ocie Stockard and the Wanderers - Long Ago
TTITLE2=Ocie Stockard and the Wanderers - Ain't Nobody Truck Like You
TTITLE3=Ocie Stockard and the Wanderers - To My House
TTITLE4=Ocie Stockard and the Wanderers - Just Blues
TTITLE5=Ocie Stockard and the Wanderers - Please Sing To Me
TTITLE6=Ocie Stockard and the Wanderers - Same Thing All The Time
TTITLE7=Ocie Stockard and the Wanderers - Turn Your Lights Down Low
TTITLE8=Ocie Stockard and the Wanderers - There'll Be Some Changes Made
TTITLE9=Roy Newman and his Boys - 12th Street Rag
TTITLE10=Roy Newman and his Boys - Hot Dog Stomp
TTITLE11=Roy Newman and his Boys - Dinah
TTITLE12=Roy Newman and his Boys - I Can't Dance (I Got Ants In My Pants
TTITLE12=)
TTITLE13=Roy Newman and his Boys - Tin Roof Blues
TTITLE14=Roy Newman and his Boys - Black and Blue
TTITLE15=Roy Newman and his Boys - Matchbox Blues
TTITLE16=Roy Newman and his Boys - Rhythm Is Our Business
TTITLE17=The Light Crust Doughboys - I'll Get Mine
TTITLE18=The Light Crust Doughboys - Weary Blues
TTITLE19=The Light Crust Doughboys - Dusky Stevedore
TTITLE20=The Light Crust Doughboys - The Birth Of The Blues
TTITLE21=The Light Crust Doughboys - I'm A Ding Dong Daddy From Dumas
TTITLE22=The Light Crust Doughboys - Gulf Coast Blues
TTITLE23=The Light Crust Doughboys - (New) Jeep's Blues
TTITLE24=The Light Crust Doughboys - Avalon
EXTD=
EXTT0=
EXTT1=
EXTT2=
EXTT3=
EXTT4=
EXTT5=
EXTT6=
EXTT7=
EXTT8=
EXTT9=
EXTT10=
EXTT11=
EXTT12=
EXTT13=
EXTT14=
EXTT15=
EXTT16=
EXTT17=
EXTT18=
EXTT19=
EXTT20=
EXTT21=
EXTT22=
EXTT23=
EXTT24=
PLAYORDER=
